<mxfile host="Electron" modified="2025-10-19T00:00:00.000Z" agent="Mozilla/5.0 (Windows NT 10.0; Win64; x64) AppleWebKit/537.36" etag="abc125" version="24.7.5" type="device">
  <diagram name="수강신청 & 성적 관리 API" id="enrollment-diagram">
    <mxGraphModel dx="1422" dy="794" grid="1" gridSize="10" guides="1" tooltips="1" connect="1" arrows="1" fold="1" page="1" pageScale="1" pageWidth="1169" pageHeight="827" math="0" shadow="0">
      <root>
        <mxCell id="0"/>
        <mxCell id="1" parent="0"/>
        <mxCell id="title" value="🎓 수강신청 &amp; 성적 관리 API&#xa;(핵심 비즈니스)" style="text;html=1;strokeColor=none;fillColor=none;align=center;verticalAlign=middle;whiteSpace=wrap;rounded=0;fontSize=24;fontStyle=1" parent="1" vertex="1">
          <mxGeometry x="300" y="20" width="500" height="60" as="geometry"/>
        </mxCell>
        <mxCell id="enrollments-list" value="POST /api/enrollments/list&#xa;📋 수강신청 목록" style="rounded=1;whiteSpace=wrap;html=1;fillColor=#4CAF50;strokeColor=#2E7D32;fontColor=#FFFFFF;fontSize=12;fontStyle=1" parent="1" vertex="1">
          <mxGeometry x="100" y="120" width="180" height="80" as="geometry"/>
        </mxCell>
        <mxCell id="enrollments-detail" value="POST /api/enrollments/detail&#xa;🔍 수강신청 상세" style="rounded=1;whiteSpace=wrap;html=1;fillColor=#2196F3;strokeColor=#0D47A1;fontColor=#FFFFFF;fontSize=12;fontStyle=1" parent="1" vertex="1">
          <mxGeometry x="320" y="120" width="180" height="80" as="geometry"/>
        </mxCell>
        <mxCell id="enrollments-enroll" value="POST /api/enrollments/enroll&#xa;➕ 수강신청" style="rounded=1;whiteSpace=wrap;html=1;fillColor=#FF9800;strokeColor=#E65100;fontColor=#FFFFFF;fontSize=12;fontStyle=1" parent="1" vertex="1">
          <mxGeometry x="540" y="120" width="180" height="80" as="geometry"/>
        </mxCell>
        <mxCell id="enrollments-cancel" value="DELETE /api/enrollments/{enrollmentIdx}&#xa;❌ 수강 취소" style="rounded=1;whiteSpace=wrap;html=1;fillColor=#F44336;strokeColor=#B71C1C;fontColor=#FFFFFF;fontSize=12;fontStyle=1" parent="1" vertex="1">
          <mxGeometry x="760" y="120" width="180" height="80" as="geometry"/>
        </mxCell>
        <mxCell id="grade-config" value="POST /api/enrollments/grade-config&#xa;⚙️ 성적 구성 설정&#xa;🔥 성적 이벤트 트리거" style="rounded=1;whiteSpace=wrap;html=1;fillColor=#9C27B0;strokeColor=#4A148C;fontColor=#FFFFFF;fontSize=12;fontStyle=1" parent="1" vertex="1">
          <mxGeometry x="100" y="240" width="180" height="80" as="geometry"/>
        </mxCell>
        <mxCell id="grade-info" value="POST /api/enrollments/grade-info&#xa;📊 개별 성적 조회" style="rounded=1;whiteSpace=wrap;html=1;fillColor=#FF5722;strokeColor=#BF360C;fontColor=#FFFFFF;fontSize=12;fontStyle=1" parent="1" vertex="1">
          <mxGeometry x="320" y="240" width="180" height="80" as="geometry"/>
        </mxCell>
        <mxCell id="grade-list" value="POST /api/enrollments/grade-list&#xa;📋 전체 성적 목록" style="rounded=1;whiteSpace=wrap;html=1;fillColor=#795548;strokeColor=#3E2723;fontColor=#FFFFFF;fontSize=12;fontStyle=1" parent="1" vertex="1">
          <mxGeometry x="540" y="240" width="180" height="80" as="geometry"/>
        </mxCell>
        <mxCell id="grade-finalize" value="POST /api/enrollments/grade-finalize&#xa;🏁 최종 등급 배정" style="rounded=1;whiteSpace=wrap;html=1;fillColor=#607D8B;strokeColor=#263238;fontColor=#FFFFFF;fontSize=12;fontStyle=1" parent="1" vertex="1">
          <mxGeometry x="760" y="240" width="180" height="80" as="geometry"/>
        </mxCell>
        <mxCell id="grade-direct" value="PUT /api/enrollments/{enrollmentIdx}/grade&#xa;✏️ 성적 직접 수정&#xa;🔥 성적 이벤트 트리거" style="rounded=1;whiteSpace=wrap;html=1;fillColor=#00BCD4;strokeColor=#006064;fontColor=#FFFFFF;fontSize=12;fontStyle=1" parent="1" vertex="1">
          <mxGeometry x="320" y="360" width="180" height="80" as="geometry"/>
        </mxCell>
        <mxCell id="attendance-modify" value="PUT /api/enrollments/{enrollmentIdx}/attendance&#xa;📝 출석 정보 수정&#xa;🔥 성적 이벤트 트리거" style="rounded=1;whiteSpace=wrap;html=1;fillColor=#8BC34A;strokeColor=#33691E;fontColor=#FFFFFF;fontSize=12;fontStyle=1" parent="1" vertex="1">
          <mxGeometry x="540" y="360" width="180" height="80" as="geometry"/>
        </mxCell>
        <mxCell id="flow1" value="" style="endArrow=classic;html=1;rounded=0;exitX=0.5;exitY=1;entryX=0.5;entryY=0" parent="1" source="enrollments-list" target="enrollments-detail" edge="1">
          <mxGeometry width="50" height="50" relative="1" as="geometry">
            <mxPoint x="-20" y="30" as="sourcePoint"/>
            <mxPoint x="30" y="-20" as="targetPoint"/>
          </mxGeometry>
        </mxCell>
        <mxCell id="flow2" value="" style="endArrow=classic;html=1;rounded=0;exitX=0.5;exitY=1;entryX=0.5;entryY=0" parent="1" source="enrollments-detail" target="enrollments-enroll" edge="1">
          <mxGeometry width="50" height="50" relative="1" as="geometry">
            <mxPoint x="-20" y="30" as="sourcePoint"/>
            <mxPoint x="30" y="-20" as="targetPoint"/>
          </mxGeometry>
        </mxCell>
        <mxCell id="flow3" value="" style="endArrow=classic;html=1;rounded=0;exitX=0.5;exitY=1;entryX=0.5;entryY=0" parent="1" source="enrollments-enroll" target="enrollments-cancel" edge="1">
          <mxGeometry width="50" height="50" relative="1" as="geometry">
            <mxPoint x="-20" y="30" as="sourcePoint"/>
            <mxPoint x="30" y="-20" as="targetPoint"/>
          </mxGeometry>
        </mxCell>
        <mxCell id="flow4" value="" style="endArrow=classic;html=1;rounded=0;exitX=0.5;exitY=1;entryX=0.5;entryY=0" parent="1" source="grade-config" target="grade-info" edge="1">
          <mxGeometry width="50" height="50" relative="1" as="geometry">
            <mxPoint x="-20" y="30" as="sourcePoint"/>
            <mxPoint x="30" y="-20" as="targetPoint"/>
          </mxGeometry>
        </mxCell>
        <mxCell id="flow5" value="" style="endArrow=classic;html=1;rounded=0;exitX=0.5;exitY=1;entryX=0.5;entryY=0" parent="1" source="grade-info" target="grade-list" edge="1">
          <mxGeometry width="50" height="50" relative="1" as="geometry">
            <mxPoint x="-20" y="30" as="sourcePoint"/>
            <mxPoint x="30" y="-20" as="targetPoint"/>
          </mxGeometry>
        </mxCell>
        <mxCell id="flow6" value="" style="endArrow=classic;html=1;rounded=0;exitX=0.5;exitY=1;entryX=0.5;entryY=0" parent="1" source="grade-list" target="grade-finalize" edge="1">
          <mxGeometry width="50" height="50" relative="1" as="geometry">
            <mxPoint x="-20" y="30" as="sourcePoint"/>
            <mxPoint x="30" y="-20" as="targetPoint"/>
          </mxGeometry>
        </mxCell>
        <mxCell id="flow7" value="" style="endArrow=classic;html=1;rounded=0;exitX=0.5;exitY=1;entryX=0.5;entryY=0" parent="1" source="grade-direct" target="attendance-modify" edge="1">
          <mxGeometry width="50" height="50" relative="1" as="geometry">
            <mxPoint x="-20" y="30" as="sourcePoint"/>
            <mxPoint x="30" y="-20" as="targetPoint"/>
          </mxGeometry>
        </mxCell>
        <mxCell id="event-trigger" value="🔥 성적 관리 이벤트 연동&#xa;• 과제 채점&#xa;• 출석 체크&#xa;• 성적 수정" style="text;html=1;strokeColor=#FF5722;fillColor=#FFF3E0;align=center;verticalAlign=middle;whiteSpace=wrap;rounded=1;fontSize=12;fontStyle=1" parent="1" vertex="1">
          <mxGeometry x="100" y="480" width="300" height="80" as="geometry"/>
        </mxCell>
        <mxCell id="legend" value="🎨 범례&#xa;🟢 POST - 조회&#xa;🔵 POST - 상세&#xa;🟠 POST - 신청&#xa;🔴 DELETE - 취소&#xa;🟣 POST - 설정&#xa;🟡 POST - 성적&#xa;🟤 POST - 최종&#xa;🔵 PUT - 직접수정&#xa;🟢 PUT - 출석수정" style="text;html=1;strokeColor=none;fillColor=#F5F5F5;align=left;verticalAlign=top;whiteSpace=wrap;rounded=1;fontSize=10" parent="1" vertex="1">
          <mxGeometry x="450" y="480" width="200" height="140" as="geometry"/>
        </mxCell>
      </root>
    </mxGraphModel>
  </diagram>
</mxfile>